<svg width="1440" height="1024" viewBox="0 0 1440 1024" fill="none" xmlns="http://www.w3.org/2000/svg">
<rect width="1440" height="1024" fill="white"/>
<g filter="url(#filter0_d_524_95)">
<circle cx="1258" cy="512" r="38" fill="white"/>
</g>
<path d="M186.39 368.3C183.84 367.22 182.22 365.33 181.26 362.93C180.3 365.45 178.56 367.61 175.77 368.72C172.98 367.61 171.24 365.45 170.28 362.9C169.32 365.3 167.7 367.22 165.18 368.3L163.14 365.39C166.83 363.71 168.33 360.32 168.33 357.05V353.93H172.26V357.05C172.26 359.75 173.28 362.72 175.77 364.64C178.32 362.72 179.25 359.78 179.25 357.05V353.93H183.24V357.05C183.24 360.38 184.65 363.8 188.43 365.39L186.39 368.3ZM188.28 372.98V376.19H163.29V372.98H188.28ZM214.588 379.55H210.838V351.92H214.588V379.55ZM208.888 352.43V378.29H205.228V364.58H202.498V361.34H205.228V352.43H208.888ZM195.478 369.89C198.118 369.8 200.548 369.68 203.338 369.23L203.668 372.41C200.098 373.04 197.038 373.13 193.588 373.13H191.638V362.12H197.548V357.8H191.608V354.65H201.388V365.24H195.478V369.89ZM241.495 379.55H237.505V351.92H241.495V379.55ZM233.275 354.8C233.275 363.23 230.425 370.19 220.615 374.9L218.545 371.78C225.595 368.42 228.655 364.07 229.225 357.95H220.015V354.8H233.275ZM271.043 369.29H246.053V366.2H256.553V364.49H249.173V352.67H268.193V355.67H253.103V357.11H267.563V359.99H253.103V361.49H268.403V364.49H260.513V366.2H271.043V369.29ZM258.503 370.52C264.833 370.52 268.103 372.05 268.103 375.05C268.103 378.05 264.833 379.58 258.503 379.58C252.233 379.58 248.933 378.05 248.933 375.05C248.933 372.05 252.233 370.52 258.503 370.52ZM258.503 376.7C262.373 376.7 264.113 376.22 264.113 375.05C264.113 373.88 262.373 373.43 258.503 373.43C254.633 373.43 252.923 373.88 252.923 375.05C252.923 376.22 254.633 376.7 258.503 376.7ZM303.428 366.8H299.438V351.95H303.428V366.8ZM288.398 353.09C292.688 353.09 295.898 355.82 295.898 359.6C295.898 363.44 292.688 366.14 288.398 366.14C284.108 366.14 280.868 363.44 280.868 359.6C280.868 355.82 284.108 353.09 288.398 353.09ZM288.398 356.36C286.238 356.36 284.738 357.56 284.738 359.6C284.738 361.67 286.238 362.87 288.398 362.87C290.558 362.87 292.028 361.67 292.028 359.6C292.028 357.56 290.558 356.36 288.398 356.36ZM288.998 370.58H299.498V368H303.428V379.25H285.068V368H288.998V370.58ZM299.498 376.13V373.61H288.998V376.13H299.498ZM322.445 368.48V379.58H318.425V368.48H308.105V365.3H325.505C326.195 361.79 326.255 359.12 326.255 356.72H310.955V353.54H330.125V356.03C330.125 358.64 330.125 361.43 329.435 365.3H333.065V368.48H322.445ZM357.303 365.75V379.52H353.343V351.92H357.303V362.48H361.173V365.75H357.303ZM349.953 354.77C349.953 363.08 346.833 370.16 337.623 374.81L335.403 371.78C341.853 368.45 345.243 364.13 345.963 357.98H336.933V354.77H349.953ZM383.207 363.41C381.887 364.73 379.967 365.51 377.687 365.51C373.547 365.51 370.427 362.84 370.427 359.12C370.427 355.37 373.547 352.67 377.687 352.67C379.967 352.67 381.857 353.45 383.177 354.74H389.207V351.95H393.167V365.78H389.207V363.41H383.207ZM374.177 359.12C374.177 361.16 375.617 362.3 377.687 362.3C379.757 362.3 381.227 361.16 381.227 359.12C381.227 357.08 379.757 355.91 377.687 355.91C375.617 355.91 374.177 357.08 374.177 359.12ZM384.827 357.8C384.917 358.25 384.977 358.64 384.977 359.12C384.977 359.72 384.947 360.14 384.857 360.35H389.207V357.8H384.827ZM393.947 379.25H374.987V371.6H389.237V369.98H374.927V366.95H393.167V374.45H378.887V376.19H393.947V379.25ZM420.645 379.64H416.685V351.92H420.645V379.64ZM403.185 369.95C407.385 369.95 410.895 369.68 414.765 369.05L415.185 372.26C410.625 373.07 406.665 373.22 401.625 373.22H399.135V361.85H408.105V357.44H399.105V354.29H412.155V364.97H403.185V369.95ZM442.813 369.74C443.863 364.55 443.923 360.68 443.923 357.47H427.813V354.32H447.883V356.96C447.883 360.41 447.883 364.34 446.773 370.19L442.813 369.74ZM450.283 376.25H425.293V373.07H434.113V363.56H438.073V373.07H450.283V376.25ZM481.287 365.63V379.52H477.327V351.92H481.287V362.36H485.157V365.63H481.287ZM464.457 369.5C467.967 369.41 471.687 369.11 475.557 368.36L475.947 371.6C471.357 372.56 467.007 372.8 462.897 372.8H460.497V354.56H464.457V369.5ZM510.445 379.64H506.485V363.77H501.175V360.59H506.485V351.92H510.445V379.64ZM497.635 358.07C497.635 363.26 499.645 368.39 504.205 370.4L501.865 373.55C498.835 372.08 496.855 369.44 495.685 366.05C494.485 369.68 492.445 372.47 489.325 374.03L486.865 370.85C491.575 368.69 493.645 363.32 493.645 358.07V354.08H497.635V358.07ZM544.749 368.3C542.199 367.22 540.579 365.33 539.619 362.93C538.659 365.45 536.919 367.61 534.129 368.72C531.339 367.61 529.599 365.45 528.639 362.9C527.679 365.3 526.059 367.22 523.539 368.3L521.499 365.39C525.189 363.71 526.689 360.32 526.689 357.05V353.93H530.619V357.05C530.619 359.75 531.639 362.72 534.129 364.64C536.679 362.72 537.609 359.78 537.609 357.05V353.93H541.599V357.05C541.599 360.38 543.009 363.8 546.789 365.39L544.749 368.3ZM546.639 372.98V376.19H521.649V372.98H546.639ZM572.947 379.55H569.197V351.92H572.947V379.55ZM567.247 352.43V378.29H563.587V364.58H560.857V361.34H563.587V352.43H567.247ZM553.837 369.89C556.477 369.8 558.907 369.68 561.697 369.23L562.027 372.41C558.457 373.04 555.397 373.13 551.947 373.13H549.997V362.12H555.907V357.8H549.967V354.65H559.747V365.24H553.837V369.89ZM599.855 379.55H595.865V351.92H599.855V379.55ZM591.635 354.8C591.635 363.23 588.785 370.19 578.975 374.9L576.905 371.78C583.955 368.42 587.015 364.07 587.585 357.95H578.375V354.8H591.635ZM607.502 355.1V352.43H626.402V358.94H611.462V360.38H626.882V363.05H607.562V356.45H622.502V355.1H607.502ZM629.462 367.22H604.442V364.37H629.462V367.22ZM627.242 376.67V379.34H607.292V372.68H622.562V371.27H607.262V368.6H626.492V375.17H611.222V376.67H627.242ZM660.527 366.02V379.58H656.567V351.95H660.527V362.75H664.487V366.02H660.527ZM654.767 356.03V359.18H638.687V356.03H644.807V352.43H648.767V356.03H654.767ZM646.817 360.74C650.807 360.74 653.777 363.47 653.777 367.31C653.777 371.24 650.807 373.94 646.817 373.94C642.797 373.94 639.797 371.24 639.797 367.31C639.797 363.47 642.797 360.74 646.817 360.74ZM646.817 370.7C648.737 370.7 650.027 369.47 650.027 367.31C650.027 365.24 648.737 363.95 646.817 363.95C644.897 363.95 643.577 365.18 643.577 367.34C643.577 369.5 644.897 370.7 646.817 370.7ZM688.065 365.63V379.52H684.105V351.92H688.065V362.36H691.935V365.63H688.065ZM671.235 369.5C674.745 369.41 678.465 369.11 682.335 368.36L682.725 371.6C678.135 372.56 673.785 372.8 669.675 372.8H667.275V354.56H671.235V369.5ZM717.612 367.97H713.622V351.95H717.612V367.97ZM710.502 367.01C708.672 365.9 707.502 364.16 706.812 362.12C706.122 364.28 705.042 366.14 703.122 367.34C701.202 366.11 700.092 364.22 699.402 362.06C698.682 364.13 697.512 365.87 695.682 367.04L693.552 364.22C696.732 362.24 697.542 358.55 697.542 355.16V353.48H701.262V355.16C701.262 357.59 701.592 360.38 703.122 362.57C704.592 360.41 704.952 357.65 704.952 355.16V353.48H705.822V353.45H708.642V355.16C708.642 358.61 709.452 362.24 712.632 364.22L710.502 367.01ZM717.612 369.26V379.61H713.622V372.41H697.962V369.26H717.612ZM747.567 351.95H751.527V372.41H747.567V363.2H743.157V360.02H747.567V351.95ZM743.127 369.17C740.007 368.24 737.937 366.44 736.647 364.04C735.447 366.68 733.287 368.63 730.167 369.62L728.247 366.53C732.687 365.09 734.607 361.79 734.607 358.43V358.31H729.207V355.22H734.607V352.16H738.567V355.22H744.027V358.31H738.567V358.43C738.567 361.55 740.547 364.73 745.017 366.08L743.127 369.17ZM752.157 379.1H733.317V370.7H737.277V375.95H752.157V379.1ZM775.164 351.95H779.124V372.41H775.164V363.2H770.754V360.02H775.164V351.95ZM770.724 369.17C767.604 368.24 765.534 366.44 764.244 364.04C763.044 366.68 760.884 368.63 757.764 369.62L755.844 366.53C760.284 365.09 762.204 361.79 762.204 358.43V358.31H756.804V355.22H762.204V352.16H766.164V355.22H771.624V358.31H766.164V358.43C766.164 361.55 768.144 364.73 772.614 366.08L770.724 369.17ZM779.754 379.1H760.914V370.7H764.874V375.95H779.754V379.1ZM806.512 379.55H802.552V351.92H806.512V379.55ZM800.602 356.09V359.24H784.222V356.09H790.432V352.37H794.392V356.09H800.602ZM792.442 360.74C796.522 360.74 799.492 363.47 799.492 367.31C799.492 371.24 796.522 373.94 792.442 373.94C788.332 373.94 785.362 371.24 785.362 367.31C785.362 363.47 788.332 360.74 792.442 360.74ZM792.442 370.7C794.362 370.7 795.712 369.47 795.712 367.31C795.712 365.24 794.362 363.95 792.442 363.95C790.522 363.95 789.142 365.24 789.142 367.31C789.142 369.47 790.522 370.7 792.442 370.7ZM830.347 358.52V355.37H837.157V351.95H841.117V366.26H837.157V358.52H830.347ZM834.397 363.44C829.927 364.28 825.937 364.49 821.827 364.49H819.517V353.3H823.477V361.22C826.867 361.13 830.197 360.89 833.947 360.26L834.397 363.44ZM841.597 370.58H821.707V367.61H829.657V365.33H833.617V367.61H841.597V370.58ZM831.637 371.33C836.767 371.33 839.527 372.83 839.527 375.47C839.527 378.11 836.767 379.61 831.637 379.61C826.777 379.61 823.747 378.11 823.747 375.47C823.747 372.83 826.777 371.33 831.637 371.33ZM831.637 376.82C834.277 376.82 835.597 376.43 835.597 375.47C835.597 374.57 834.277 374.12 831.637 374.12C828.997 374.12 827.677 374.57 827.677 375.47C827.677 376.43 828.997 376.82 831.637 376.82ZM868.804 379.64H864.844V365.09H860.254C859.864 370.37 857.014 373.61 853.174 373.61C849.064 373.61 846.034 369.8 846.034 363.71C846.034 357.65 849.064 353.87 853.174 353.87C856.894 353.87 859.654 356.93 860.224 361.88H864.844V351.92H868.804V379.64ZM853.174 370.01C855.214 370.01 856.564 367.82 856.564 363.71C856.564 359.6 855.214 357.44 853.174 357.44C851.134 357.44 849.814 359.6 849.814 363.71C849.814 367.82 851.134 370.01 853.174 370.01ZM874.412 362.54C880.082 361.82 882.992 359.18 883.382 356.51H875.432V353.36H895.922V356.51H888.092C888.482 359.18 891.362 361.82 897.002 362.54L895.592 365.63C890.762 364.94 887.402 362.96 885.722 360.08C884.042 362.96 880.682 364.94 875.852 365.63L874.412 362.54ZM887.612 370.37V379.64H883.652V370.37H873.242V367.22H898.202V370.37H887.612ZM924.51 379.58H920.76V351.95H924.51V379.58ZM918.84 352.4V378.35H915.15V364.49H911.7V361.28H915.15V352.4H918.84ZM909.63 358.85C909.63 363.32 910.83 367.91 914.58 370.4L912.42 373.46C910.02 372.02 908.61 369.68 907.74 366.89C906.78 370.01 905.19 372.56 902.67 374.09L900.3 371.12C904.35 368.66 905.82 363.71 905.82 359V354.35H909.63V358.85ZM953.427 376.37H928.407V373.16H933.927V366.41C931.767 365.12 930.567 363.14 930.597 360.74C930.597 356.21 934.977 353.3 940.887 353.3C946.857 353.3 951.207 356.21 951.207 360.74C951.207 363.14 949.947 365.12 947.877 366.41V373.16H953.427V376.37ZM940.887 356.42C937.047 356.42 934.497 357.98 934.497 360.74C934.497 363.5 937.047 365.06 940.887 365.06C944.727 365.06 947.307 363.5 947.307 360.74C947.307 357.98 944.727 356.42 940.887 356.42ZM943.947 373.16V367.88C942.987 368.06 941.967 368.15 940.887 368.15C939.837 368.15 938.817 368.06 937.857 367.88V373.16H943.947ZM956.665 377.42V373.16H961.045V377.42H956.665Z" fill="#3D3D3D"/>
<path d="M215.92 497.75V511.58H211.96V483.95H215.92V494.48H219.94V497.75H215.92ZM204.43 491.39C204.43 495.59 206.62 500.51 211.15 502.58L208.96 505.7C205.84 504.29 203.74 501.53 202.51 498.26C201.28 501.89 199.06 504.86 195.91 506.39L193.69 503.24C198.22 501.17 200.47 495.95 200.47 491.39V489.86H194.74V486.59H209.92V489.86H204.43V491.39ZM246.908 500.09H221.918V496.94H232.418V494.66H224.948V485.12H243.908V488.27H228.878V491.51H244.058V494.66H236.378V496.94H246.908V500.09ZM234.308 501.44C240.278 501.44 243.908 503.27 243.908 506.54C243.908 509.78 240.278 511.61 234.308 511.61C228.338 511.61 224.738 509.78 224.738 506.54C224.738 503.27 228.338 501.44 234.308 501.44ZM234.308 508.61C238.058 508.61 239.888 507.98 239.888 506.54C239.888 505.13 238.028 504.44 234.308 504.44C230.588 504.44 228.728 505.13 228.728 506.54C228.728 507.98 230.558 508.61 234.308 508.61ZM270.352 493.04V489.83H275.422V483.95H279.382V504.35H275.422V493.04H270.352ZM270.682 500.33C267.802 499.28 265.852 497.27 264.682 494.72C263.512 497.6 261.412 499.82 258.172 500.99L256.102 497.9C260.662 496.37 262.582 492.53 262.582 488.6V485.63H266.602V488.63C266.602 492.23 268.462 495.74 272.782 497.27L270.682 500.33ZM279.982 511.1H261.142V502.31H265.102V507.95H279.982V511.1ZM307.43 500.81H303.68V493.88H301.46V500.63H297.77V484.43H301.46V490.73H303.68V483.95H307.43V500.81ZM296.66 499.13C293.54 499.61 290.81 499.73 286.73 499.73H284.81V485.81H295.67V488.93H288.62V491.21H295.4V494.21H288.62V496.55C291.59 496.52 293.78 496.37 296.3 495.98L296.66 499.13ZM307.43 502.01V511.61H303.47V505.16H288.41V502.01H307.43ZM341.164 511.64H337.204V483.92H341.164V511.64ZM328.984 490.1C328.984 495.23 331.174 500.27 335.854 502.28L333.604 505.49C330.364 504.05 328.294 501.32 327.064 497.93C325.834 501.68 323.674 504.59 320.284 506.15L317.914 502.88C322.744 500.78 325.024 495.5 325.024 490.1V486.08H328.984V490.1ZM375.621 499.97C372.981 498.8 371.271 496.61 370.341 494.06C369.471 496.7 367.791 499.04 365.031 500.27C362.271 498.98 360.561 496.55 359.721 493.91C358.791 496.46 356.991 498.74 354.441 499.97L353.121 498.08C356.571 496.55 358.521 492.89 358.521 489.92V486.5H360.951V489.92C360.951 492.41 362.361 495.77 365.061 497.66C367.761 495.83 369.081 492.53 369.081 489.92V486.5H371.571V489.92C371.571 493.22 373.431 496.55 376.971 498.08L375.621 499.97ZM377.271 507.65H352.881V505.61H377.271V507.65ZM403.339 511.22H400.969V484.31H403.339V511.22ZM397.849 484.97V509.81H395.539V496.01H392.209V493.97H395.539V484.97H397.849ZM383.749 502.55C386.839 502.55 389.689 502.43 393.169 501.83L393.379 503.84C389.629 504.47 386.599 504.62 383.149 504.62H381.379V494.66H388.579V489.29H381.289V487.28H390.949V496.61H383.749V502.55ZM430.156 511.22H427.696V484.31H430.156V511.22ZM422.266 487.22C422.266 494.99 418.726 501.8 409.756 506.21L408.436 504.2C415.666 500.75 419.266 495.59 419.776 489.2H409.666V487.22H422.266ZM438.944 494.42V485.3H441.404V492.41H457.244V494.42H438.944ZM460.034 500H435.644V498.02H460.034V500ZM457.394 508.55V510.56H438.764V502.7H441.224V508.55H457.394ZM490.681 497.24V511.22H488.221V484.34H490.681V495.17H495.121V497.24H490.681ZM479.041 492.53C479.041 496.82 482.101 501.59 486.001 503.42L484.591 505.4C481.591 503.87 479.041 500.75 477.841 497.15C476.641 501.05 473.971 504.56 470.971 506.06L469.531 504.11C473.371 502.19 476.611 497.09 476.611 492.53V489.11H470.461V487.07H485.011V489.11H479.041V492.53ZM521.938 499.58H497.578V497.6H508.528V494.48H500.638V485.54H518.908V487.52H503.098V492.5H519.088V494.48H510.988V497.6H521.938V499.58ZM509.758 501.5C515.458 501.5 518.938 503.24 518.938 506.36C518.938 509.48 515.458 511.22 509.758 511.22C503.998 511.22 500.518 509.48 500.518 506.36C500.518 503.24 503.998 501.5 509.758 501.5ZM509.758 509.3C513.988 509.3 516.448 508.28 516.448 506.36C516.448 504.44 513.988 503.42 509.758 503.42C505.408 503.42 503.008 504.44 503.008 506.36C503.008 508.28 505.408 509.3 509.758 509.3ZM537.326 485.99C542.906 485.99 547.106 488.99 547.106 493.43C547.106 497.93 542.906 500.87 537.326 500.87C531.746 500.87 527.546 497.93 527.546 493.43C527.546 488.99 531.746 485.99 537.326 485.99ZM537.326 488C533.096 488 529.886 490.19 529.886 493.43C529.886 496.7 533.096 498.86 537.326 498.86C541.556 498.86 544.766 496.7 544.766 493.43C544.766 490.19 541.556 488 537.326 488ZM549.596 507.65H525.146V505.61H549.596V507.65ZM577.194 507.89H552.744V505.88H563.694V500.81H555.804V492.5H571.764V488.3H555.744V486.29H574.164V494.48H558.234V498.83H574.794V500.81H566.184V505.88H577.194V507.89ZM590.29 495.92V485.18H592.72V488.6H605.8V485.18H608.23V495.92H590.29ZM592.72 490.49V493.97H605.8V490.49H592.72ZM611.47 500.51H600.67V505.73H598.21V500.51H587.02V498.53H611.47V500.51ZM608.74 508.61V510.62H590.14V503.3H592.57V508.61H608.74ZM617.558 487.34V485.36H636.128V492.29H620.108V495.59H636.728V497.57H617.648V490.43H633.638V487.34H617.558ZM632.708 502.34V511.25H630.248V502.34H623.468V511.25H621.008V502.34H614.648V500.36H639.068V502.34H632.708ZM671.065 499.82H668.605V484.34H671.065V499.82ZM666.565 498.05C660.715 499.01 654.265 499.16 649.435 499.16L649.075 497.18C651.355 497.18 653.905 497.18 656.665 497.06V494.18H651.505V485.66H664.165V487.67H653.935V492.17H664.435V494.18H659.125V496.97C661.645 496.82 664.015 496.64 666.415 496.28L666.565 498.05ZM671.065 501.02V510.86H653.425V501.02H655.885V503.84H668.635V501.02H671.065ZM655.885 505.76V508.88H668.635V505.76H655.885ZM698.632 511.19H696.172V484.31H698.632V511.19ZM680.722 502.16C684.832 502.16 688.942 501.83 693.412 500.9L693.682 503C688.972 503.96 684.802 504.26 680.482 504.26H678.262V486.92H680.722V502.16ZM724.88 496.97V511.28H722.42V484.31H724.88V494.93H729.32V496.97H724.88ZM707.78 502.46C712.58 502.46 716.03 502.28 719.9 501.56L720.17 503.6C716.09 504.41 712.49 504.56 707.45 504.56H705.32V486.89H717.83V488.93H707.78V502.46Z" fill="#3D3D3D"/>
<path d="M173.88 226.6L170.76 238H161.76L175.98 193.6H186.42L200.7 238H191.4L188.28 226.6H173.88ZM185.04 214.84C183.66 210.22 182.52 205.12 181.14 200.32H180.9C179.76 205.18 178.5 210.22 177.12 214.84L175.8 219.7H186.36L185.04 214.84ZM214.778 193.6V238H205.898V193.6H214.778ZM242.776 212.38V189.64H250.636V195.28H272.176V189.64H280.036V212.38H242.776ZM250.636 201.22V206.2H272.176V201.22H250.636ZM286.456 222.46H266.056V231.16H258.136V222.46H236.356V216.22H286.456V222.46ZM280.936 235.9V242.2H242.176V227.02H250.096V235.9H280.936ZM337.571 243.28H329.651V187.84H337.571V243.28ZM302.651 223.9C311.051 223.9 318.071 223.36 325.811 222.1L326.651 228.52C317.531 230.14 309.611 230.44 299.531 230.44H294.551V207.7H312.491V198.88H294.491V192.58H320.591V213.94H302.651V223.9ZM391.987 213.88C382.327 212.44 375.487 208 371.887 202C368.287 208 361.387 212.44 351.727 213.88L348.727 207.52C361.387 205.78 367.627 198.64 367.627 192.16V189.52H376.087V192.16C376.087 198.64 382.507 205.78 394.987 207.52L391.987 213.88ZM375.607 224.38V243.22H367.687V224.38H346.867V217.96H396.787V224.38H375.607ZM448.202 243.16H440.282V215.5H429.602V209.08H440.282V187.9H448.202V243.16ZM429.962 193.6C429.962 210.28 424.562 224.02 405.542 233.62L401.342 227.5C415.142 220.6 420.782 211.9 421.922 199.9H403.982V193.6H429.962ZM516.991 220.6C511.891 218.44 508.651 214.66 506.731 209.86C504.811 214.9 501.331 219.22 495.751 221.44C490.171 219.22 486.691 214.9 484.771 209.8C482.851 214.6 479.611 218.44 474.571 220.6L470.491 214.78C477.871 211.42 480.871 204.64 480.871 198.1V191.86H488.731V198.1C488.731 203.5 490.771 209.44 495.751 213.28C500.851 209.44 502.711 203.56 502.711 198.1V191.86H510.691V198.1C510.691 204.76 513.511 211.6 521.071 214.78L516.991 220.6ZM520.771 229.96V236.38H470.791V229.96H520.771ZM573.386 243.1H565.886V187.84H573.386V243.1ZM561.986 188.86V240.58H554.666V213.16H549.206V206.68H554.666V188.86H561.986ZM535.166 223.78C540.446 223.6 545.306 223.36 550.886 222.46L551.546 228.82C544.406 230.08 538.286 230.26 531.386 230.26H527.486V208.24H539.306V199.6H527.426V193.3H546.986V214.48H535.166V223.78ZM627.202 243.1H619.222V187.84H627.202V243.1ZM610.762 193.6C610.762 210.46 605.062 224.38 585.442 233.8L581.302 227.56C595.402 220.84 601.522 212.14 602.662 199.9H584.242V193.6H610.762ZM686.297 222.58H636.317V216.4H657.317V212.98H642.557V189.34H680.597V195.34H650.417V198.22H679.337V203.98H650.417V206.98H681.017V212.98H665.237V216.4H686.297V222.58ZM661.217 225.04C673.877 225.04 680.417 228.1 680.417 234.1C680.417 240.1 673.877 243.16 661.217 243.16C648.677 243.16 642.077 240.1 642.077 234.1C642.077 228.1 648.677 225.04 661.217 225.04ZM661.217 237.4C668.957 237.4 672.437 236.44 672.437 234.1C672.437 231.76 668.957 230.86 661.217 230.86C653.477 230.86 650.057 231.76 650.057 234.1C650.057 236.44 653.477 237.4 661.217 237.4ZM748.426 215.74V243.16H740.506V187.9H748.426V209.14H756.466V215.74H748.426ZM725.506 200.2C725.506 210.16 729.406 220.24 738.286 224.56L733.486 230.8C727.726 227.86 723.886 222.7 721.546 215.92C719.146 222.94 715.006 228.76 708.766 231.82L704.026 225.4C713.326 221.08 717.526 210.46 717.526 200.2V192.16H725.506V200.2ZM810.281 220.36H760.361V214.12H771.581V207.46C767.441 205.6 765.341 202.9 765.341 199.36C765.341 192.76 773.141 188.74 785.321 188.74C797.561 188.74 805.361 192.76 805.361 199.36C805.361 202.96 803.021 205.66 798.941 207.52V214.12H810.281V220.36ZM785.321 194.74C777.821 194.74 773.501 196.24 773.501 199.36C773.501 202.42 777.821 203.92 785.321 203.92C793.061 203.92 797.201 202.42 797.201 199.36C797.201 196.24 793.061 194.74 785.321 194.74ZM791.021 214.12V209.56C789.281 209.74 787.421 209.86 785.321 209.86C783.221 209.86 781.301 209.74 779.501 209.5V214.12H791.021ZM785.201 223.12C797.141 223.12 804.401 226.72 804.401 233.14C804.401 239.62 797.141 243.22 785.201 243.22C773.261 243.22 766.061 239.62 766.061 233.14C766.061 226.72 773.261 223.12 785.201 223.12ZM785.201 237.22C792.641 237.22 796.361 235.84 796.361 233.14C796.361 230.32 792.701 229.12 785.201 229.12C777.701 229.12 774.041 230.32 774.041 233.14C774.041 235.84 777.761 237.22 785.201 237.22ZM861.757 218.2H853.837V206.86H843.997V216.58H817.897V190.72H825.757V197.68H836.257V190.72H843.997V200.5H853.837V187.9H861.757V218.2ZM825.757 203.74V210.28H836.257V203.74H825.757ZM861.757 220.54V242.44H825.157V220.54H832.957V225.46H853.897V220.54H861.757ZM832.957 231.52V236.2H853.897V231.52H832.957Z" fill="#3D3D3D"/>
<path d="M169.02 813.86C166.17 809.21 164.55 804.35 164.55 798.32C164.55 792.32 166.17 787.46 169.02 782.81L171.78 783.98C169.26 788.45 168.12 793.19 168.12 798.32C168.12 803.51 169.26 808.22 171.78 812.69L169.02 813.86ZM196.888 809.21C193.858 806.21 190.978 803.18 187.948 800.06C184.948 803.18 181.918 806.21 179.008 809.21C178.198 808.52 177.598 807.89 176.908 807.2L186.058 798.17C183.028 795.17 179.908 792.14 176.908 789.14C177.598 788.45 178.228 787.7 178.798 787.01L187.828 796.28L196.978 787.01C197.668 787.7 198.208 788.45 198.898 789.14L189.838 798.17C192.868 801.17 195.868 804.2 198.988 807.2L196.888 809.21ZM187.828 792.59C186.508 792.59 185.158 791.24 185.158 789.8C185.158 788.36 186.388 787.13 187.828 787.13C189.298 787.13 190.618 788.36 190.618 789.8C190.618 791.24 189.388 792.59 187.828 792.59ZM179.578 800.96C178.138 800.96 176.788 799.61 176.788 798.29C176.788 796.82 178.138 795.5 179.578 795.5C180.928 795.5 182.248 796.82 182.248 798.29C182.248 799.61 181.018 800.96 179.578 800.96ZM196.768 800.84C195.328 800.84 194.098 799.73 194.098 798.29C194.098 796.73 195.328 795.5 196.768 795.5C198.208 795.5 199.438 796.73 199.438 798.29C199.438 799.73 198.208 800.84 196.768 800.84ZM187.828 809.54C186.508 809.54 185.278 808.34 185.278 806.87C185.278 805.43 186.388 804.2 187.828 804.2C189.298 804.2 190.618 805.43 190.618 806.87C190.618 808.34 189.388 809.54 187.828 809.54ZM211.684 792.32C216.844 791.93 219.514 790.07 220.234 788.24H212.914V785.09H233.344V788.24H225.994C226.714 790.07 229.384 791.93 234.544 792.32L233.164 795.44C227.734 794.93 224.554 793.01 223.114 790.37C221.644 793.01 218.464 794.93 213.034 795.44L211.684 792.32ZM235.594 800.33H210.634V797.18H221.104V793.85H225.064V797.18H235.594V800.33ZM223.054 801.83C229.054 801.83 232.654 803.6 232.654 806.72C232.654 809.84 229.054 811.61 223.054 811.61C217.054 811.61 213.484 809.84 213.484 806.72C213.484 803.6 217.054 801.83 223.054 801.83ZM223.054 808.64C226.804 808.64 228.634 808.07 228.634 806.72C228.634 805.43 226.774 804.8 223.054 804.8C219.334 804.8 217.474 805.43 217.474 806.72C217.474 808.07 219.304 808.64 223.054 808.64ZM261.121 811.64H257.161V783.92H261.121V811.64ZM246.271 785.87C250.441 785.87 253.531 789.65 253.531 795.71C253.531 801.8 250.441 805.61 246.271 805.61C242.101 805.61 239.011 801.8 239.011 795.71C239.011 789.65 242.101 785.87 246.271 785.87ZM246.271 789.44C244.231 789.44 242.821 791.6 242.821 795.71C242.821 799.82 244.231 802.01 246.271 802.01C248.311 802.01 249.721 799.82 249.721 795.71C249.721 791.6 248.311 789.44 246.271 789.44ZM268.889 787.1V784.43H287.789V790.94H272.849V792.38H288.269V795.05H268.949V788.45H283.889V787.1H268.889ZM290.849 799.22H265.829V796.37H290.849V799.22ZM288.629 808.67V811.34H268.679V804.68H283.949V803.27H268.649V800.6H287.879V807.17H272.609V808.67H288.629ZM312.554 790.52V787.37H319.364V783.95H323.324V798.26H319.364V790.52H312.554ZM316.604 795.44C312.134 796.28 308.144 796.49 304.034 796.49H301.724V785.3H305.684V793.22C309.074 793.13 312.404 792.89 316.154 792.26L316.604 795.44ZM323.804 802.58H303.914V799.61H311.864V797.33H315.824V799.61H323.804V802.58ZM313.844 803.33C318.974 803.33 321.734 804.83 321.734 807.47C321.734 810.11 318.974 811.61 313.844 811.61C308.984 811.61 305.954 810.11 305.954 807.47C305.954 804.83 308.984 803.33 313.844 803.33ZM313.844 808.82C316.484 808.82 317.804 808.43 317.804 807.47C317.804 806.57 316.484 806.12 313.844 806.12C311.204 806.12 309.884 806.57 309.884 807.47C309.884 808.43 311.204 808.82 313.844 808.82ZM340.301 793.76C333.791 793.76 330.311 792.17 330.311 789.05C330.311 786.02 333.791 784.34 340.301 784.34C346.871 784.34 350.321 786.02 350.321 789.05C350.321 792.17 346.871 793.76 340.301 793.76ZM340.301 787.25C336.311 787.25 334.421 787.82 334.421 789.05C334.421 790.34 336.311 790.88 340.301 790.88C344.411 790.88 346.211 790.34 346.211 789.05C346.211 787.82 344.411 787.25 340.301 787.25ZM352.781 798.17H327.821V795.08H352.781V798.17ZM350.471 808.4V811.37H330.701V804.11H345.851V802.64H330.671V799.73H349.751V806.84H334.631V808.4H350.471ZM385.106 811.64H381.146V783.92H385.106V811.64ZM372.926 790.1C372.926 795.23 375.116 800.27 379.796 802.28L377.546 805.49C374.306 804.05 372.236 801.32 371.006 797.93C369.776 801.68 367.616 804.59 364.226 806.15L361.856 802.88C366.686 800.78 368.966 795.5 368.966 790.1V786.08H372.926V790.1ZM415.57 797.78V783.95H419.56V797.78H415.57ZM411.76 791.06C411.76 794.78 408.61 797.39 404.41 797.39C400.21 797.39 397 794.78 397 791.06C397 787.37 400.21 784.76 404.41 784.76C408.61 784.76 411.76 787.37 411.76 791.06ZM400.84 791.06C400.84 793.1 402.37 794.18 404.41 794.18C406.45 794.18 407.92 793.1 407.92 791.06C407.92 789.11 406.45 787.94 404.41 787.94C402.37 787.94 400.84 789.11 400.84 791.06ZM420.25 811.28H401.17V803.63H415.63V801.95H401.14V798.92H419.56V806.45H405.1V808.19H420.25V811.28ZM449.618 794.99H445.958V804.29H441.998V783.95H445.958V791.75H449.618V794.99ZM425.018 799.97V785.93H428.918V789.86H434.348V785.93H438.248V799.97H425.018ZM428.918 792.92V796.85H434.348V792.92H428.918ZM446.948 807.95V811.1H428.138V802.28H432.098V807.95H446.948ZM474.906 800.3C472.356 799.22 470.736 797.33 469.776 794.93C468.816 797.45 467.076 799.61 464.286 800.72C461.496 799.61 459.756 797.45 458.796 794.9C457.836 797.3 456.216 799.22 453.696 800.3L451.656 797.39C455.346 795.71 456.846 792.32 456.846 789.05V785.93H460.776V789.05C460.776 791.75 461.796 794.72 464.286 796.64C466.836 794.72 467.766 791.78 467.766 789.05V785.93H471.756V789.05C471.756 792.38 473.166 795.8 476.946 797.39L474.906 800.3ZM476.796 804.98V808.19H451.806V804.98H476.796ZM503.103 811.55H499.353V783.92H503.103V811.55ZM497.403 784.43V810.29H493.743V796.58H491.013V793.34H493.743V784.43H497.403ZM483.993 801.89C486.633 801.8 489.063 801.68 491.853 801.23L492.183 804.41C488.613 805.04 485.553 805.13 482.103 805.13H480.153V794.12H486.063V789.8H480.123V786.65H489.903V797.24H483.993V801.89ZM530.011 811.55H526.021V783.92H530.011V811.55ZM521.791 786.8C521.791 795.23 518.941 802.19 509.131 806.9L507.061 803.78C514.111 800.42 517.171 796.07 517.741 789.95H508.531V786.8H521.791ZM559.619 808.55H534.599V805.31H545.099V801.2H537.479V791.84H552.899V788.87H537.449V785.72H556.799V794.93H541.409V798.02H557.429V801.2H549.059V805.31H559.619V808.55ZM572.173 796.19V784.82H576.103V787.64H586.873V784.82H590.803V796.19H572.173ZM576.103 790.61V793.1H586.873V790.61H576.103ZM594.013 801.23H583.813V805.58H579.853V801.23H568.963V798.11H594.013V801.23ZM591.253 807.95V811.1H571.873V803.51H575.833V807.95H591.253ZM599.471 787.94V784.79H618.731V792.86H603.551V795.05H619.391V798.2H599.501V789.95H614.711V787.94H599.471ZM615.881 803.3V811.61H611.891V803.3H606.341V811.61H602.351V803.3H596.591V800.15H621.611V803.3H615.881ZM629.078 805.19L626.858 811.46H623.468L624.698 805.19H629.078ZM662.309 811.61H658.559V783.95H662.309V811.61ZM656.759 784.52V810.32H653.069V797.48H650.429V794.03H653.069V784.52H656.759ZM649.349 801.68C650.099 801.59 650.819 801.53 651.509 801.44L651.779 804.29C647.489 805.25 641.939 805.31 638.489 805.31L638.069 802.1H640.229V790.22H638.549V787.07H651.119V790.22H649.349V801.68ZM643.769 802.01C644.459 802.01 645.149 801.98 645.809 801.92V790.22H643.769V802.01ZM668.876 801.32V785.96H688.076V789.14H672.896V792.05H687.446V795.11H672.896V798.2H688.286V801.32H668.876ZM690.956 808.4H665.936V805.19H690.956V808.4ZM696.594 787.1V784.43H715.494V790.94H700.554V792.38H715.974V795.05H696.654V788.45H711.594V787.1H696.594ZM718.554 799.22H693.534V796.37H718.554V799.22ZM716.334 808.67V811.34H696.384V804.68H711.654V803.27H696.354V800.6H715.584V807.17H700.314V808.67H716.334ZM740.259 790.52V787.37H747.069V783.95H751.029V798.26H747.069V790.52H740.259ZM744.309 795.44C739.839 796.28 735.849 796.49 731.739 796.49H729.429V785.3H733.389V793.22C736.779 793.13 740.109 792.89 743.859 792.26L744.309 795.44ZM751.509 802.58H731.619V799.61H739.569V797.33H743.529V799.61H751.509V802.58ZM741.549 803.33C746.679 803.33 749.439 804.83 749.439 807.47C749.439 810.11 746.679 811.61 741.549 811.61C736.689 811.61 733.659 810.11 733.659 807.47C733.659 804.83 736.689 803.33 741.549 803.33ZM741.549 808.82C744.189 808.82 745.509 808.43 745.509 807.47C745.509 806.57 744.189 806.12 741.549 806.12C738.909 806.12 737.589 806.57 737.589 807.47C737.589 808.43 738.909 808.82 741.549 808.82ZM768.006 793.76C761.496 793.76 758.016 792.17 758.016 789.05C758.016 786.02 761.496 784.34 768.006 784.34C774.576 784.34 778.026 786.02 778.026 789.05C778.026 792.17 774.576 793.76 768.006 793.76ZM768.006 787.25C764.016 787.25 762.126 787.82 762.126 789.05C762.126 790.34 764.016 790.88 768.006 790.88C772.116 790.88 773.916 790.34 773.916 789.05C773.916 787.82 772.116 787.25 768.006 787.25ZM780.486 798.17H755.526V795.08H780.486V798.17ZM778.176 808.4V811.37H758.406V804.11H773.556V802.64H758.376V799.73H777.456V806.84H762.336V808.4H778.176ZM812.811 811.64H808.851V783.92H812.811V811.64ZM800.631 790.1C800.631 795.23 802.821 800.27 807.501 802.28L805.251 805.49C802.011 804.05 799.941 801.32 798.711 797.93C797.481 801.68 795.321 804.59 791.931 806.15L789.561 802.88C794.391 800.78 796.671 795.5 796.671 790.1V786.08H800.631V790.1ZM826.505 787.64V784.7H847.055V787.64H843.545V791.18H846.845V794.12H826.685V791.18H830.015V787.64H826.505ZM833.945 787.64V791.18H839.615V787.64H833.945ZM849.275 798.65H824.315V795.53H849.275V798.65ZM846.965 808.52V811.37H827.195V804.38H842.345V803.03H827.165V800.18H846.245V807.02H831.125V808.52H846.965ZM873.603 797.63V811.64H869.643V783.92H873.603V794.36H877.563V797.63H873.603ZM856.953 801.98C860.913 801.95 864.183 801.74 867.783 801.11L868.143 804.32C863.973 805.04 860.193 805.25 855.393 805.25H853.053V793.85H861.813V789.44H853.023V786.29H865.713V796.97H856.953V801.98ZM901.981 800.27C897.151 799.31 893.671 796.64 891.871 793.13C890.071 796.64 886.621 799.34 881.791 800.27L880.111 796.97C886.351 795.92 889.771 791.48 889.771 787.55V785.57H894.001V787.55C894.001 791.54 897.421 795.92 903.661 796.97L901.981 800.27ZM904.531 808.22H879.511V805.01H904.531V808.22ZM930.058 800.66H926.068V783.95H930.058V800.66ZM924.148 798.89C920.218 799.52 916.828 799.58 910.978 799.58H908.608V785.75H921.898V788.87H912.538V791.12H921.088V794.18H912.538V796.46C917.278 796.46 920.368 796.37 923.788 795.8L924.148 798.89ZM930.058 801.83V811.61H926.068V804.98H911.218V801.83H930.058ZM947.186 785.33C953.006 785.33 957.506 788.51 957.506 793.34C957.506 798.14 953.006 801.32 947.186 801.32C941.396 801.32 936.896 798.14 936.896 793.34C936.896 788.51 941.396 785.33 947.186 785.33ZM947.186 788.57C943.466 788.57 940.766 790.34 940.766 793.34C940.766 796.28 943.466 798.08 947.186 798.08C950.936 798.08 953.636 796.28 953.636 793.34C953.636 790.34 950.936 788.57 947.186 788.57ZM959.726 808.28H934.706V805.04H959.726V808.28ZM987.324 808.55H962.304V805.31H972.804V801.2H965.184V791.84H980.604V788.87H965.154V785.72H984.504V794.93H969.114V798.02H985.134V801.2H976.764V805.31H987.324V808.55ZM999.878 796.19V784.82H1003.81V787.64H1014.58V784.82H1018.51V796.19H999.878ZM1003.81 790.61V793.1H1014.58V790.61H1003.81ZM1021.72 801.23H1011.52V805.58H1007.56V801.23H996.668V798.11H1021.72V801.23ZM1018.96 807.95V811.1H999.578V803.51H1003.54V807.95H1018.96ZM1027.18 787.94V784.79H1046.44V792.86H1031.26V795.05H1047.1V798.2H1027.21V789.95H1042.42V787.94H1027.18ZM1043.59 803.3V811.61H1039.6V803.3H1034.05V811.61H1030.06V803.3H1024.3V800.15H1049.32V803.3H1043.59ZM1081.73 799.97H1077.77V783.95H1081.73V799.97ZM1076.36 798.5C1070.42 799.55 1064.12 799.67 1059.29 799.67L1058.75 796.61C1060.91 796.61 1063.28 796.61 1065.8 796.52V794.39H1061.06V785.21H1074.35V788.36H1065.02V791.27H1074.5V794.39H1069.76V796.34C1071.92 796.25 1074.02 796.1 1076.06 795.77L1076.36 798.5ZM1081.73 801.08V811.25H1063.04V801.08H1066.97V803.15H1077.83V801.08H1081.73ZM1066.97 806.15V808.16H1077.83V806.15H1066.97ZM1109.36 811.55H1105.4V783.92H1109.36V811.55ZM1091.66 801.38C1095.29 801.29 1099.16 800.99 1103.27 800.18L1103.69 803.48C1098.98 804.47 1094.42 804.77 1090.19 804.77H1087.73V786.56H1091.66V801.38ZM1135.52 797.42V811.64H1131.56V783.95H1135.52V794.15H1139.54V797.42H1135.52ZM1118.9 801.71C1122.83 801.68 1126.1 801.44 1129.67 800.84L1130.06 804.11C1125.89 804.83 1122.11 805.01 1117.31 805.01H1114.94V786.5H1127.84V789.71H1118.9V801.71ZM1142.14 809.42V805.16H1146.52V809.42H1142.14ZM1150.02 812.69C1152.54 808.22 1153.68 803.51 1153.68 798.32C1153.68 793.19 1152.54 788.45 1150.02 783.98L1152.75 782.81C1155.63 787.46 1157.25 792.32 1157.25 798.32C1157.25 804.35 1155.6 809.21 1152.75 813.86L1150.02 812.69Z" fill="#0079FF"/>
<path d="M216.88 586.94C212.05 586.22 208.63 584 206.83 581C205.03 584 201.58 586.22 196.75 586.94L195.25 583.76C201.58 582.89 204.7 579.32 204.7 576.08V574.76H208.93V576.08C208.93 579.32 212.14 582.89 218.38 583.76L216.88 586.94ZM208.69 592.19V601.61H204.73V592.19H194.32V588.98H219.28V592.19H208.69ZM246.908 590.09H221.918V586.94H232.418V584.66H224.948V575.12H243.908V578.27H228.878V581.51H244.058V584.66H236.378V586.94H246.908V590.09ZM234.308 591.44C240.278 591.44 243.908 593.27 243.908 596.54C243.908 599.78 240.278 601.61 234.308 601.61C228.338 601.61 224.738 599.78 224.738 596.54C224.738 593.27 228.338 591.44 234.308 591.44ZM234.308 598.61C238.058 598.61 239.888 597.98 239.888 596.54C239.888 595.13 238.028 594.44 234.308 594.44C230.588 594.44 228.728 595.13 228.728 596.54C228.728 597.98 230.558 598.61 234.308 598.61ZM270.352 583.04V579.83H275.422V573.95H279.382V594.35H275.422V583.04H270.352ZM270.682 590.33C267.802 589.28 265.852 587.27 264.682 584.72C263.512 587.6 261.412 589.82 258.172 590.99L256.102 587.9C260.662 586.37 262.582 582.53 262.582 578.6V575.63H266.602V578.63C266.602 582.23 268.462 585.74 272.782 587.27L270.682 590.33ZM279.982 601.1H261.142V592.31H265.102V597.95H279.982V601.1ZM307.43 590.81H303.68V583.88H301.46V590.63H297.77V574.43H301.46V580.73H303.68V573.95H307.43V590.81ZM296.66 589.13C293.54 589.61 290.81 589.73 286.73 589.73H284.81V575.81H295.67V578.93H288.62V581.21H295.4V584.21H288.62V586.55C291.59 586.52 293.78 586.37 296.3 585.98L296.66 589.13ZM307.43 592.01V601.61H303.47V595.16H288.41V592.01H307.43ZM341.164 601.64H337.204V573.92H341.164V601.64ZM328.984 580.1C328.984 585.23 331.174 590.27 335.854 592.28L333.604 595.49C330.364 594.05 328.294 591.32 327.064 587.93C325.834 591.68 323.674 594.59 320.284 596.15L317.914 592.88C322.744 590.78 325.024 585.5 325.024 580.1V576.08H328.984V580.1ZM373.581 587.24V601.22H371.121V574.34H373.581V585.17H378.021V587.24H373.581ZM361.941 582.53C361.941 586.82 365.001 591.59 368.901 593.42L367.491 595.4C364.491 593.87 361.941 590.75 360.741 587.15C359.541 591.05 356.871 594.56 353.871 596.06L352.431 594.11C356.271 592.19 359.511 587.09 359.511 582.53V579.11H353.361V577.07H367.911V579.11H361.941V582.53ZM400.099 594.05V574.31H402.559V594.05H400.099ZM395.389 589.67C392.269 588.5 389.959 586.13 388.759 583.01C387.589 586.28 385.189 588.89 382.039 590.21L380.749 588.2C384.829 586.67 387.499 582.74 387.499 578.54V575.81H389.959V578.54C389.959 582.59 392.719 586.28 396.679 587.72L395.389 589.67ZM403.369 600.62H385.249V592.22H387.709V598.61H403.369V600.62ZM430.096 601.28H427.636V574.31H430.096V601.28ZM415.906 576.38C419.896 576.38 422.746 580.04 422.746 585.77C422.746 591.5 419.896 595.16 415.906 595.16C411.916 595.16 409.066 591.5 409.066 585.77C409.066 580.04 411.916 576.38 415.906 576.38ZM415.906 578.6C413.266 578.6 411.406 581.42 411.406 585.77C411.406 590.15 413.266 592.97 415.906 592.97C418.516 592.97 420.376 590.15 420.376 585.77C420.376 581.42 418.516 578.6 415.906 578.6ZM464.553 601.28H462.093V586.28H455.793V594.47H443.463V576.44H445.893V583.43H453.393V576.44H455.793V584.3H462.093V574.31H464.553V601.28ZM445.893 585.38V592.46H453.393V585.38H445.893ZM492.061 601.25H489.601V574.28H492.061V601.25ZM474.001 592.7C478.411 592.7 482.401 592.46 487.081 591.74L487.321 593.75C482.431 594.56 478.411 594.74 473.761 594.74H471.541V584.42H481.441V578.81H471.451V576.8H483.931V586.43H474.001V592.7ZM500.158 579.02V577.01H519.028V579.68C519.028 583.04 519.058 586.7 518.008 592.13L515.548 591.86C516.598 586.73 516.568 582.89 516.568 579.68V579.02H500.158ZM521.938 597.44H497.608V595.43H507.058V585.8H509.518V595.43H521.938V597.44ZM551.505 589.28V574.34H553.965V589.28H551.505ZM546.975 588.23C543.855 587.15 541.395 584.93 540.165 582.05C538.995 585.17 536.535 587.57 533.295 588.74L532.035 586.79C536.115 585.35 538.905 581.81 538.905 577.94V575.3H541.365V577.94C541.365 581.66 544.155 584.99 548.145 586.28L546.975 588.23ZM554.415 600.86H535.905V598.88H539.865V592.88H536.145V590.9H554.115V592.88H550.425V598.88H554.415V600.86ZM547.995 598.88V592.88H542.295V598.88H547.995ZM571.633 585.95C565.873 585.95 562.183 583.97 562.183 580.61C562.183 577.25 565.873 575.24 571.633 575.24C577.393 575.24 581.083 577.25 581.083 580.61C581.083 583.97 577.393 585.95 571.633 585.95ZM571.633 577.22C567.403 577.22 564.703 578.45 564.703 580.61C564.703 582.77 567.403 583.97 571.633 583.97C575.863 583.97 578.563 582.77 578.563 580.61C578.563 578.45 575.863 577.22 571.633 577.22ZM583.783 590.45H559.453V588.47H583.783V590.45ZM581.113 598.61V600.62H562.603V592.82H565.063V598.61H581.113ZM616.529 589.97C613.889 588.8 612.179 586.61 611.249 584.06C610.379 586.7 608.699 589.04 605.939 590.27C603.179 588.98 601.469 586.55 600.629 583.91C599.699 586.46 597.899 588.74 595.349 589.97L594.029 588.08C597.479 586.55 599.429 582.89 599.429 579.92V576.5H601.859V579.92C601.859 582.41 603.269 585.77 605.969 587.66C608.669 585.83 609.989 582.53 609.989 579.92V576.5H612.479V579.92C612.479 583.22 614.339 586.55 617.879 588.08L616.529 589.97ZM618.179 597.65H593.789V595.61H618.179V597.65ZM644.247 601.22H641.877V574.31H644.247V601.22ZM638.757 574.97V599.81H636.447V586.01H633.117V583.97H636.447V574.97H638.757ZM624.657 592.55C627.747 592.55 630.597 592.43 634.077 591.83L634.287 593.84C630.537 594.47 627.507 594.62 624.057 594.62H622.287V584.66H629.487V579.29H622.197V577.28H631.857V586.61H624.657V592.55ZM671.065 601.22H668.605V574.31H671.065V601.22ZM663.175 577.22C663.175 584.99 659.635 591.8 650.665 596.21L649.345 594.2C656.575 590.75 660.175 585.59 660.685 579.2H650.575V577.22H663.175ZM679.642 576.83V575.09H697.852V580.7H682.132V583.01H698.332V584.78H679.702V579.02H695.422V576.83H679.642ZM700.972 588.68H676.582V586.82H700.972V588.68ZM698.782 599.09V600.86H679.552V594.89H695.512V592.64H679.492V590.87H697.942V596.6H681.982V599.09H698.782ZM732.969 590.6H730.509V574.31H732.969V590.6ZM726.129 589.4C723.009 588.32 720.579 586.16 719.349 583.28C718.179 586.4 715.779 588.74 712.539 589.91L711.249 587.99C715.329 586.55 718.059 583.01 718.059 579.26V578.18H711.909V576.2H726.669V578.18H720.579V579.26C720.579 582.83 723.369 586.16 727.329 587.45L726.129 589.4ZM732.969 592.01V601.22H730.509V593.99H714.969V592.01H732.969ZM760.626 588.92H758.166V582.86H752.856V580.85H758.166V574.34H760.626V588.92ZM753.126 588.77C750.126 587.66 747.816 585.44 746.616 582.68C745.446 585.8 743.016 588.2 739.866 589.4L738.576 587.45C742.566 586.01 745.356 582.5 745.356 578.63V577.94H739.356V575.93H753.726V577.94H747.816V578.63C747.816 582.05 750.456 585.47 754.356 586.82L753.126 588.77ZM760.626 590.24V600.86H743.406V590.24H745.836V593.54H758.196V590.24H760.626ZM745.836 595.46V598.85H758.196V595.46H745.836ZM786.593 582.68V580.64H792.473V574.34H794.963V594.44H792.473V582.68H786.593ZM787.223 589.97C784.223 588.8 781.973 586.49 780.803 583.58C779.633 586.82 777.263 589.31 774.113 590.6L772.823 588.65C776.843 587.21 779.543 583.34 779.543 579.26V575.93H782.003V579.35C782.003 583.1 784.673 586.64 788.513 588.08L787.223 589.97ZM795.593 600.62H777.653V592.22H780.113V598.61H795.593V600.62ZM823.101 590.63H820.731V583.34H817.131V590.45H814.791V574.82H817.131V581.33H820.731V574.34H823.101V590.63ZM813.231 588.47C810.111 589.1 807.591 589.22 803.271 589.22H801.561V576.29H811.941V578.27H803.931V581.66H811.641V583.55H803.931V587.21C807.771 587.21 810.201 587.06 812.991 586.49L813.231 588.47ZM823.101 592.04V601.22H820.641V594.02H805.011V592.04H823.101ZM848.718 587.45V601.22H846.258V574.34H848.718V585.38H853.128V587.45H848.718ZM843.708 578.63V580.61H827.838V578.63H834.618V574.64H837.078V578.63H843.708ZM835.878 582.83C839.718 582.83 842.448 585.44 842.448 589.04C842.448 592.73 839.718 595.22 835.878 595.22C832.098 595.22 829.368 592.73 829.368 589.04C829.368 585.44 832.098 582.83 835.878 582.83ZM835.878 593.18C838.368 593.18 840.108 591.44 840.108 589.04C840.108 586.64 838.368 584.87 835.878 584.87C833.448 584.87 831.678 586.64 831.678 589.04C831.678 591.44 833.448 593.18 835.878 593.18ZM877.756 601.28H875.296V590.84H868.576C867.466 593.6 865.426 595.16 862.786 595.16C858.856 595.16 856.066 591.5 856.066 585.77C856.066 580.04 858.856 576.38 862.786 576.38C865.306 576.38 867.226 577.82 868.396 580.34H875.296V574.31H877.756V601.28ZM862.786 592.97C865.306 592.97 867.166 590.15 867.166 585.77C867.166 581.42 865.306 578.6 862.786 578.6C860.206 578.6 858.406 581.42 858.406 585.77C858.406 590.15 860.206 592.97 862.786 592.97ZM875.296 582.35H869.086C869.326 583.4 869.476 584.54 869.476 585.77C869.476 587 869.386 588.02 869.176 588.83H875.296V582.35ZM912.063 601.28H909.603V586.28H903.303V594.47H890.973V576.44H893.403V583.43H900.903V576.44H903.303V584.3H909.603V574.31H912.063V601.28ZM893.403 585.38V592.46H900.903V585.38H893.403ZM937.11 588.44V574.34H939.57V588.44H937.11ZM934.08 586.61C929.85 587.33 926.34 587.42 921 587.42H918.84V580.43H928.68V577.49H918.78V575.57H931.11V582.26H921.27V585.5C926.34 585.5 929.73 585.41 933.84 584.69L934.08 586.61ZM940.47 600.92H922.2V594.2H937.08V591.59H922.14V589.7H939.57V596.03H924.69V599H940.47V600.92ZM973.937 586.55C969.737 585.83 965.747 583.52 963.977 580.25C962.297 583.52 958.217 585.83 954.047 586.55L953.057 584.57C957.977 583.85 962.687 580.64 962.687 576.77V575.27H965.267V576.77C965.267 580.52 970.067 583.85 974.957 584.57L973.937 586.55ZM965.147 591.5V601.25H962.687V591.5H951.827V589.46H976.127L976.157 591.5H965.147ZM1005.72 589.7V574.34H1008.18V589.7H1005.72ZM993.724 588.44C989.674 588.44 986.734 585.89 986.734 582.17C986.734 578.45 989.674 575.9 993.724 575.9C997.804 575.9 1000.77 578.45 1000.77 582.17C1000.77 585.89 997.804 588.44 993.724 588.44ZM993.724 577.94C991.054 577.94 989.134 579.68 989.134 582.17C989.134 584.66 991.054 586.4 993.724 586.4C996.394 586.4 998.374 584.66 998.374 582.17C998.374 579.68 996.394 577.94 993.724 577.94ZM1005.18 592.31C1005.18 595.1 1007.13 597.89 1010.58 599L1009.35 600.86C1006.71 599.9 1004.88 598.07 1003.95 595.79C1003.11 597.98 1001.49 600.02 998.974 601.1C996.334 600.05 994.774 598.16 993.964 595.88C993.004 598.04 991.174 599.9 988.654 600.86L987.424 599C990.814 597.8 992.824 594.92 992.824 592.31V590.87H995.194V592.31C995.194 594.71 996.394 597.23 998.914 598.7C1001.49 597.08 1002.78 594.41 1002.78 592.31V590.87H1005.18V592.31ZM1025.85 575.99C1031.43 575.99 1035.63 578.99 1035.63 583.43C1035.63 587.93 1031.43 590.87 1025.85 590.87C1020.27 590.87 1016.07 587.93 1016.07 583.43C1016.07 578.99 1020.27 575.99 1025.85 575.99ZM1025.85 578C1021.62 578 1018.41 580.19 1018.41 583.43C1018.41 586.7 1021.62 588.86 1025.85 588.86C1030.08 588.86 1033.29 586.7 1033.29 583.43C1033.29 580.19 1030.08 578 1025.85 578ZM1038.12 597.65H1013.67V595.61H1038.12V597.65ZM1063.47 601.28H1061.01V590.18H1054.62V594.41H1042.38V576.95H1054.62V580.76H1061.01V574.31H1063.47V601.28ZM1044.78 578.9V592.46H1052.19V578.9H1044.78ZM1061.01 582.77H1054.62V588.17H1061.01V582.77ZM1071.72 595.19L1069.89 601.25H1067.91L1068.99 595.19H1071.72ZM215.29 664.24V678.22H212.83V651.34H215.29V662.17H219.73V664.24H215.29ZM203.65 659.53C203.65 663.82 206.71 668.59 210.61 670.42L209.2 672.4C206.2 670.87 203.65 667.75 202.45 664.15C201.25 668.05 198.58 671.56 195.58 673.06L194.14 671.11C197.98 669.19 201.22 664.09 201.22 659.53V656.11H195.07V654.07H209.62V656.11H203.65V659.53ZM241.808 671.05V651.31H244.268V671.05H241.808ZM237.098 666.67C233.978 665.5 231.668 663.13 230.468 660.01C229.298 663.28 226.898 665.89 223.748 667.21L222.458 665.2C226.538 663.67 229.208 659.74 229.208 655.54V652.81H231.668V655.54C231.668 659.59 234.428 663.28 238.388 664.72L237.098 666.67ZM245.078 677.62H226.958V669.22H229.418V675.61H245.078V677.62ZM271.805 678.28H269.345V651.31H271.805V678.28ZM257.615 653.38C261.605 653.38 264.455 657.04 264.455 662.77C264.455 668.5 261.605 672.16 257.615 672.16C253.625 672.16 250.775 668.5 250.775 662.77C250.775 657.04 253.625 653.38 257.615 653.38ZM257.615 655.6C254.975 655.6 253.115 658.42 253.115 662.77C253.115 667.15 254.975 669.97 257.615 669.97C260.225 669.97 262.085 667.15 262.085 662.77C262.085 658.42 260.225 655.6 257.615 655.6ZM297.892 659.68V657.64H303.772V651.34H306.262V671.44H303.772V659.68H297.892ZM298.522 666.97C295.522 665.8 293.272 663.49 292.102 660.58C290.932 663.82 288.562 666.31 285.412 667.6L284.122 665.65C288.142 664.21 290.842 660.34 290.842 656.26V652.93H293.302V656.35C293.302 660.1 295.972 663.64 299.812 665.08L298.522 666.97ZM306.892 677.62H288.952V669.22H291.412V675.61H306.892V677.62ZM334.4 667.63H332.03V660.34H328.43V667.45H326.09V651.82H328.43V658.33H332.03V651.34H334.4V667.63ZM324.53 665.47C321.41 666.1 318.89 666.22 314.57 666.22H312.86V653.29H323.24V655.27H315.23V658.66H322.94V660.55H315.23V664.21C319.07 664.21 321.5 664.06 324.29 663.49L324.53 665.47ZM334.4 669.04V678.22H331.94V671.02H316.31V669.04H334.4ZM339.377 656.59V654.61H346.067V651.34H348.527V654.61H355.247V656.59H339.377ZM364.157 662.26H360.167V671.5H357.707V651.34H360.167V660.19H364.157V662.26ZM353.747 663.07C353.747 666.1 351.137 668.08 347.297 668.08C343.487 668.08 340.877 666.1 340.877 663.07C340.877 660.07 343.487 658.09 347.297 658.09C351.137 658.09 353.747 660.07 353.747 663.07ZM343.217 663.07C343.217 664.99 344.777 666.16 347.297 666.16C349.727 666.16 351.407 664.99 351.407 663.07C351.407 661.15 349.727 660.01 347.297 660.01C344.777 660.01 343.217 661.15 343.217 663.07ZM361.367 675.61V677.62H343.427V669.91H345.887V675.61H361.367ZM396.334 666.97C393.694 665.8 391.984 663.61 391.054 661.06C390.184 663.7 388.504 666.04 385.744 667.27C382.984 665.98 381.274 663.55 380.434 660.91C379.504 663.46 377.704 665.74 375.154 666.97L373.834 665.08C377.284 663.55 379.234 659.89 379.234 656.92V653.5H381.664V656.92C381.664 659.41 383.074 662.77 385.774 664.66C388.474 662.83 389.794 659.53 389.794 656.92V653.5H392.284V656.92C392.284 660.22 394.144 663.55 397.684 665.08L396.334 666.97ZM397.984 674.65H373.594V672.61H397.984V674.65ZM424.052 678.22H421.682V651.31H424.052V678.22ZM418.562 651.97V676.81H416.252V663.01H412.922V660.97H416.252V651.97H418.562ZM404.462 669.55C407.552 669.55 410.402 669.43 413.882 668.83L414.092 670.84C410.342 671.47 407.312 671.62 403.862 671.62H402.092V661.66H409.292V656.29H402.002V654.28H411.662V663.61H404.462V669.55ZM450.869 678.22H448.409V651.31H450.869V678.22ZM442.979 654.22C442.979 661.99 439.439 668.8 430.469 673.21L429.149 671.2C436.379 667.75 439.979 662.59 440.489 656.2H430.379V654.22H442.979ZM459.447 653.83V652.09H477.657V657.7H461.937V660.01H478.137V661.78H459.507V656.02H475.227V653.83H459.447ZM480.777 665.68H456.387V663.82H480.777V665.68ZM478.587 676.09V677.86H459.357V671.89H475.317V669.64H459.297V667.87H477.747V673.6H461.787V676.09H478.587ZM514.994 664.96H490.694V662.98H501.614V660.94C496.304 660.73 493.394 659.08 493.394 656.29C493.394 653.26 496.934 651.61 502.844 651.61C508.874 651.61 512.294 653.26 512.294 656.29C512.294 659.17 509.354 660.73 504.074 660.94V662.98H514.994V664.96ZM495.914 656.29C495.914 658.09 498.374 659.11 502.844 659.11C507.314 659.11 509.774 658.09 509.774 656.29C509.774 654.49 507.314 653.47 502.844 653.47C498.374 653.47 495.914 654.49 495.914 656.29ZM512.714 676V677.92H493.694V671.47H509.474V669.07H493.604V667.21H511.904V673.3H496.094V676H512.714ZM538.991 663.97V678.19H536.531V651.34H538.991V661.9H543.431V663.97H538.991ZM531.881 653.59V671.74H519.371V653.59H521.801V660.7H529.481V653.59H531.881ZM521.801 662.65V669.73H529.481V662.65H521.801ZM548.859 655.36V653.38H567.279V661.51H551.349V665.89H567.909V667.9H548.919V659.53H564.879V655.36H548.859ZM570.309 674.83H545.859V672.79H570.309V674.83ZM596.346 678.22H594.006V651.31H596.346V678.22ZM590.736 652.03V676.87H588.396V664.3H582.876C581.196 667.42 578.706 670.15 574.956 672.43L573.516 670.66C579.306 667.18 582.156 662.41 582.606 656.74H574.656V654.73H585.036C585.036 657.37 584.676 659.92 583.746 662.32H588.396V652.03H590.736ZM611.003 662.92V652.18H613.433V655.6H626.513V652.18H628.943V662.92H611.003ZM613.433 657.49V660.97H626.513V657.49H613.433ZM632.183 667.51H621.383V672.73H618.923V667.51H607.733V665.53H632.183V667.51ZM629.453 675.61V677.62H610.853V670.3H613.283V675.61H629.453ZM657.471 678.25H655.011V651.28H657.471V678.25ZM639.411 669.7C643.821 669.7 647.811 669.46 652.491 668.74L652.731 670.75C647.841 671.56 643.821 671.74 639.171 671.74H636.951V661.42H646.851V655.81H636.861V653.8H649.341V663.43H639.411V669.7ZM684.337 667.57V651.76H686.647V658.72H690.037V651.34H692.407V667.99H690.037V660.73H686.647V667.57H684.337ZM669.547 656.35V654.4H675.187V651.46H677.617V654.4H683.227V656.35H669.547ZM676.417 666.91C673.027 666.91 670.657 665.08 670.657 662.32C670.657 659.53 673.027 657.7 676.417 657.7C679.807 657.7 682.147 659.53 682.147 662.32C682.147 665.08 679.807 666.91 676.417 666.91ZM676.417 659.53C674.257 659.53 672.877 660.64 672.877 662.32C672.877 664 674.257 665.08 676.417 665.08C678.577 665.08 679.957 664 679.957 662.32C679.957 660.64 678.577 659.53 676.417 659.53ZM689.107 669.7C689.107 672.31 691.117 675.01 694.507 676.06L693.367 677.89C690.607 676.96 688.807 675.19 687.877 673C687.067 675.16 685.477 677.08 682.957 678.13C680.317 677.17 678.787 675.28 677.977 673.09C676.987 675.25 675.187 676.96 672.547 677.89L671.407 676.06C674.767 674.95 676.807 672.16 676.807 669.7V668.77H679.177V669.7C679.177 671.98 680.377 674.35 682.897 675.76C685.417 674.26 686.677 671.68 686.677 669.7V668.77H689.107V669.7ZM709.445 661.09C703.535 661.09 699.995 659.47 699.995 656.44C699.995 653.41 703.535 651.76 709.445 651.76C715.355 651.76 718.895 653.41 718.895 656.44C718.895 659.47 715.355 661.09 709.445 661.09ZM709.445 653.62C704.975 653.62 702.515 654.64 702.515 656.44C702.515 658.24 704.975 659.26 709.445 659.26C713.915 659.26 716.375 658.24 716.375 656.44C716.375 654.64 713.915 653.62 709.445 653.62ZM721.625 664.9H697.265V662.92H721.625V664.9ZM719.315 676V677.92H700.295V671.47H716.075V669.07H700.205V667.21H718.505V673.27H702.695V676H719.315ZM744.562 658.27C742.732 662.68 738.862 665.71 732.952 667.42L731.962 665.47C738.442 663.55 742.342 660.04 742.822 655.33H733.342V653.35H745.492C745.492 654.34 745.402 655.33 745.192 656.26H751.282V651.34H753.772V667.42H751.282V663.88H744.232V661.87H751.282V658.27H744.562ZM744.982 667.72C750.412 667.72 753.892 669.67 753.892 672.91C753.892 676.15 750.412 678.1 744.982 678.1C739.552 678.1 736.072 676.15 736.072 672.91C736.072 669.67 739.552 667.72 744.982 667.72ZM744.982 676.18C748.942 676.18 751.462 674.95 751.462 672.91C751.462 670.87 748.972 669.67 744.982 669.67C740.992 669.67 738.502 670.87 738.502 672.91C738.502 674.95 741.022 676.18 744.982 676.18ZM771.319 664.18C765.709 664.18 761.929 661.87 761.929 658.27C761.929 654.7 765.709 652.39 771.319 652.39C776.929 652.39 780.739 654.7 780.739 658.27C780.739 661.87 776.929 664.18 771.319 664.18ZM771.319 654.37C767.239 654.37 764.449 655.87 764.449 658.27C764.449 660.67 767.239 662.2 771.319 662.2C775.429 662.2 778.219 660.67 778.219 658.27C778.219 655.87 775.429 654.37 771.319 654.37ZM772.549 668.77V678.25H770.089V668.77H759.199V666.73H783.559V668.77H772.549ZM795.036 663.55C799.926 662.92 804.426 659.95 804.426 656.62H795.876V654.64H804.456V651.34H806.916V654.64H815.496V656.62H806.916C806.916 659.92 811.446 662.92 816.276 663.55L815.406 665.53C811.266 664.9 807.396 662.83 805.686 659.92C803.976 662.83 800.106 664.9 795.936 665.53L795.036 663.55ZM806.916 669.58V678.25H804.456V669.58H793.536V667.57H817.866V669.58H806.916ZM841.804 664.27V678.22H839.344V651.31H841.804V662.23H846.124V664.27H841.804ZM834.844 654.19C834.844 661.84 831.334 668.8 822.634 673.12L821.284 671.2C828.274 667.69 831.844 662.71 832.414 656.23H822.544V654.19H834.844ZM870.841 667.42H868.381V660.34H863.131V658.33H868.381V651.31H870.841V667.42ZM863.341 666.37C860.341 665.29 858.031 663.07 856.831 660.28C855.661 663.4 853.231 665.83 850.081 667L848.791 665.05C852.781 663.61 855.571 660.07 855.571 656.23V655.15H849.571V653.14H863.941V655.15H858.031V656.23C858.031 659.68 860.671 663.1 864.571 664.45L863.341 666.37ZM870.841 668.89V678.25H868.381V670.87H852.871V668.89H870.841ZM895.919 670.99V651.34H898.379V670.99H895.919ZM890.969 659.8C890.969 663.7 887.909 666.46 883.919 666.46C879.929 666.46 876.929 663.7 876.929 659.8C876.929 655.93 879.929 653.2 883.919 653.2C887.909 653.2 890.969 655.93 890.969 659.8ZM879.329 659.8C879.329 662.47 881.279 664.33 883.919 664.33C886.589 664.33 888.569 662.47 888.569 659.8C888.569 657.19 886.589 655.33 883.919 655.33C881.279 655.33 879.329 657.19 879.329 659.8ZM899.189 677.62H881.069V668.98H883.529V675.61H899.189V677.62ZM931.306 664.12V678.22H928.846V651.34H931.306V662.05H935.746V664.12H931.306ZM924.016 654.01V671.38H911.686V654.01H924.016ZM921.616 669.4V655.99H914.086V669.4H921.616ZM957.823 665.11V651.31H960.283V665.11H957.823ZM952.723 658.27C952.723 661.78 949.753 664.21 945.763 664.21C941.773 664.21 938.833 661.78 938.833 658.27C938.833 654.7 941.773 652.27 945.763 652.27C949.753 652.27 952.723 654.7 952.723 658.27ZM941.203 658.27C941.203 660.55 943.153 662.23 945.763 662.23C948.403 662.23 950.323 660.55 950.323 658.27C950.323 655.96 948.403 654.28 945.763 654.28C943.153 654.28 941.203 655.96 941.203 658.27ZM961.183 677.86H942.913V671.11H957.853V668.38H942.853V666.43H960.283V672.94H945.343V675.91H961.183V677.86ZM987.881 678.25H985.421V651.28H987.881V678.25ZM969.821 669.7C974.231 669.7 978.221 669.46 982.901 668.74L983.141 670.75C978.251 671.56 974.231 671.74 969.581 671.74H967.361V661.42H977.261V655.81H967.271V653.8H979.751V663.43H969.821V669.7ZM1015.42 678.22H1012.96V651.34H1015.42V678.22ZM1003 659.53C1003 664.09 1006.24 668.74 1010.2 670.42L1008.82 672.4C1005.7 670.96 1003.06 667.87 1001.77 664.18C1000.57 668.08 997.839 671.56 994.839 673.06L993.399 671.08C997.269 669.22 1000.54 664.18 1000.54 659.53V656.11H994.299V654.07H1009.33V656.11H1003V659.53ZM1041.7 664.27V678.22H1039.24V651.31H1041.7V662.23H1046.02V664.27H1041.7ZM1034.74 654.19C1034.74 661.84 1031.23 668.8 1022.53 673.12L1021.18 671.2C1028.17 667.69 1031.74 662.71 1032.31 656.23H1022.44V654.19H1034.74ZM1077.32 678.22H1074.86V651.34H1077.32V678.22ZM1064.9 659.53C1064.9 664.09 1068.14 668.74 1072.1 670.42L1070.72 672.4C1067.6 670.96 1064.96 667.87 1063.67 664.18C1062.47 668.08 1059.74 671.56 1056.74 673.06L1055.3 671.08C1059.17 669.22 1062.44 664.18 1062.44 659.53V656.11H1056.2V654.07H1071.23V656.11H1064.9V659.53ZM1107.32 664.3H1082.87V662.29H1100.99C1101.74 658.96 1101.74 656.59 1101.74 654.55H1085.99V652.54H1104.17V654.49C1104.17 656.56 1104.17 658.93 1103.45 662.29H1107.32V664.3ZM1104.14 666.73V677.86H1086.05V666.73H1088.48V670.27H1101.71V666.73H1104.14ZM1088.48 672.19V675.88H1101.71V672.19H1088.48ZM1139.29 666.82H1136.83V651.34H1139.29V666.82ZM1134.79 665.05C1128.94 666.01 1122.49 666.16 1117.66 666.16L1117.3 664.18C1119.58 664.18 1122.13 664.18 1124.89 664.06V661.18H1119.73V652.66H1132.39V654.67H1122.16V659.17H1132.66V661.18H1127.35V663.97C1129.87 663.82 1132.24 663.64 1134.64 663.28L1134.79 665.05ZM1139.29 668.02V677.86H1121.65V668.02H1124.11V670.84H1136.86V668.02H1139.29ZM1124.11 672.76V675.88H1136.86V672.76H1124.11ZM1166.85 678.19H1164.39V651.31H1166.85V678.19ZM1148.94 669.16C1153.05 669.16 1157.16 668.83 1161.63 667.9L1161.9 670C1157.19 670.96 1153.02 671.26 1148.7 671.26H1146.48V653.92H1148.94V669.16ZM1193.1 663.97V678.28H1190.64V651.31H1193.1V661.93H1197.54V663.97H1193.1ZM1176 669.46C1180.8 669.46 1184.25 669.28 1188.12 668.56L1188.39 670.6C1184.31 671.41 1180.71 671.56 1175.67 671.56H1173.54V653.89H1186.05V655.93H1176V669.46Z" fill="#3D3D3D"/>
<circle cx="167" cy="587" r="5" fill="#0079FF"/>
<circle cx="167" cy="499" r="5" fill="#0079FF"/>
<path fill-rule="evenodd" clip-rule="evenodd" d="M1251.82 524.845C1251.17 524.194 1251.17 523.139 1251.82 522.488L1262.31 512L1251.82 501.512C1251.17 500.861 1251.17 499.806 1251.82 499.155C1252.47 498.504 1253.53 498.504 1254.18 499.155L1265.85 510.821C1266.5 511.472 1266.5 512.528 1265.85 513.178L1254.18 524.845C1253.53 525.496 1252.47 525.496 1251.82 524.845Z" fill="black"/>
<defs>
<filter id="filter0_d_524_95" x="1216" y="474" width="84" height="84" filterUnits="userSpaceOnUse" color-interpolation-filters="sRGB">
<feFlood flood-opacity="0" result="BackgroundImageFix"/>
<feColorMatrix in="SourceAlpha" type="matrix" values="0 0 0 0 0 0 0 0 0 0 0 0 0 0 0 0 0 0 127 0" result="hardAlpha"/>
<feOffset dy="4"/>
<feGaussianBlur stdDeviation="2"/>
<feComposite in2="hardAlpha" operator="out"/>
<feColorMatrix type="matrix" values="0 0 0 0 0 0 0 0 0 0 0 0 0 0 0 0 0 0 0.25 0"/>
<feBlend mode="normal" in2="BackgroundImageFix" result="effect1_dropShadow_524_95"/>
<feBlend mode="normal" in="SourceGraphic" in2="effect1_dropShadow_524_95" result="shape"/>
</filter>
</defs>
</svg>
